<?xml version="1.0" standalone="no"?>
<!DOCTYPE svg PUBLIC "-//W3C//DTD SVG 20010904//EN"
 "http://www.w3.org/TR/2001/REC-SVG-20010904/DTD/svg10.dtd">
<svg version="1.0" xmlns="http://www.w3.org/2000/svg"
 width="1080.000000pt" height="1080.000000pt" viewBox="0 0 1080.000000 1080.000000"
 preserveAspectRatio="xMidYMid meet">

<g transform="translate(0.000000,1080.000000) scale(0.100000,-0.100000)"
fill="#000000" stroke="none">
<path d="M5295 10739 c-262 -6 -355 -12 -449 -28 -65 -12 -156 -21 -201 -21
-132 0 -332 -57 -356 -101 -5 -11 -21 -19 -34 -19 -27 0 -45 -25 -45 -64 0
-33 -15 -33 -99 0 -36 15 -90 30 -121 35 -30 5 -71 12 -91 15 -22 4 -58 0 -92
-10 -30 -9 -72 -16 -94 -16 -64 0 -146 -64 -242 -188 -115 -150 -104 -117 -98
-285 5 -123 9 -157 28 -202 12 -30 21 -56 18 -58 -2 -2 -69 -36 -149 -74 -342
-168 -668 -380 -985 -644 -133 -111 -459 -437 -570 -572 -880 -1062 -1266
-2376 -1095 -3724 116 -910 489 -1758 1095 -2490 115 -139 439 -463 578 -578
892 -739 1969 -1135 3084 -1135 944 0 1830 257 2625 763 286 182 539 387 803
652 202 201 307 322 470 540 670 898 1012 2058 934 3177 -71 1040 -450 1981
-1124 2795 -115 139 -439 463 -578 578 -494 409 -1022 703 -1604 894 l-142 46
-6 60 c-4 33 -2 152 3 265 6 113 8 208 5 212 -2 5 -12 8 -22 8 -10 0 -28 12
-42 26 -41 45 -96 63 -230 74 -140 12 -141 12 -339 39 -200 27 -353 41 -435
39 -39 0 -219 -5 -400 -9z m600 -124 c99 -8 194 -19 211 -24 31 -9 151 -23
345 -41 131 -12 141 -15 133 -46 -5 -19 -8 -426 -4 -564 2 -63 -21 -715 -25
-728 -3 -7 -17 -18 -32 -24 -15 -7 -43 -25 -61 -40 -18 -15 -37 -28 -42 -28
-12 0 -120 -139 -120 -155 0 -8 -15 -33 -33 -57 -74 -97 -88 -145 -93 -322
l-4 -141 38 -75 c20 -42 57 -100 82 -129 56 -67 161 -171 173 -171 22 0 162
-125 198 -177 30 -43 40 -95 64 -348 4 -38 11 -75 16 -81 5 -6 -4 -15 -26 -23
-65 -23 -80 -99 -50 -251 41 -211 56 -283 76 -365 12 -49 25 -117 30 -150 4
-33 17 -96 28 -140 12 -44 28 -129 36 -190 18 -130 33 -229 46 -305 32 -190
43 -602 21 -785 -7 -60 -17 -141 -21 -180 -5 -38 -14 -96 -20 -128 -8 -39 -11
-115 -7 -225 6 -201 18 -304 46 -397 28 -94 50 -201 50 -250 0 -22 7 -53 16
-70 16 -31 31 -101 44 -215 4 -36 17 -101 29 -145 12 -44 24 -111 27 -150 11
-141 74 -275 220 -471 49 -65 52 -73 63 -159 7 -49 16 -117 22 -151 5 -33 9
-68 9 -78 0 -20 -64 -51 -126 -61 -38 -6 -44 -4 -62 22 -11 16 -38 72 -60 125
-67 160 -188 379 -233 418 -21 19 -81 74 -133 122 -105 96 -131 108 -238 108
-71 0 -146 -26 -240 -83 -26 -16 -63 -33 -82 -38 -19 -5 -59 -26 -88 -45 -29
-20 -69 -44 -88 -54 -19 -10 -44 -28 -54 -39 -11 -12 -35 -29 -54 -38 -50 -24
-85 -85 -77 -133 8 -45 34 -72 95 -99 41 -18 56 -19 160 -10 63 5 131 11 150
14 31 5 40 1 81 -38 62 -59 68 -90 33 -159 -15 -29 -40 -68 -55 -86 -37 -42
-38 -84 -4 -118 31 -31 31 -40 -1 -106 -48 -97 -83 -144 -143 -191 -34 -26
-82 -78 -111 -119 -69 -100 -112 -147 -132 -148 -10 0 -50 -15 -90 -34 -40
-18 -84 -37 -98 -41 -14 -4 -41 -18 -60 -31 -19 -13 -40 -24 -46 -24 -6 0 -39
-18 -74 -41 -35 -22 -106 -63 -159 -91 -53 -28 -105 -59 -117 -69 -18 -17 -38
-19 -162 -19 l-142 0 -2 43 c-1 45 -1 51 9 110 7 43 -10 67 -57 87 -73 30
-140 275 -94 345 18 27 77 65 102 65 9 0 82 23 162 50 174 59 199 82 145 136
-22 22 -32 25 -73 21 -26 -3 -96 -10 -157 -16 -134 -14 -290 -56 -440 -119
-52 -22 -100 -32 -188 -41 -64 -7 -127 -9 -139 -5 -13 4 -59 10 -103 13 -91 7
-88 2 -67 111 32 164 35 200 23 240 -10 33 -9 45 4 70 19 36 28 37 48 6 9 -13
32 -29 51 -36 29 -9 41 -8 73 6 47 23 164 133 216 204 23 30 51 66 64 80 13
14 53 58 89 97 37 40 76 75 87 79 26 8 65 -22 93 -72 45 -80 110 -95 167 -38
14 14 40 29 59 35 30 8 35 7 58 -21 34 -40 87 -60 160 -60 52 0 68 5 106 30
24 17 59 54 77 83 19 29 41 58 50 65 12 11 171 41 220 42 18 0 47 43 47 69 0
34 -78 146 -109 156 -32 10 -68 60 -85 118 -22 74 -54 119 -100 136 -34 13
-41 13 -72 -4 -18 -10 -57 -49 -86 -86 -29 -38 -63 -71 -74 -75 -25 -7 -68 14
-140 67 -56 41 -74 83 -74 173 0 44 -2 46 -75 106 -41 33 -81 71 -90 83 -20
29 -19 70 5 137 34 95 28 126 -35 203 -31 37 -60 67 -66 67 -6 0 -49 19 -95
42 l-84 43 -49 -18 c-65 -23 -81 -22 -126 10 -86 63 -92 73 -100 158 -8 84 -2
118 38 225 20 55 32 70 71 96 68 46 82 60 96 104 12 37 40 56 40 28 0 -7 14
-33 31 -58 31 -45 31 -45 24 -144 -5 -79 -4 -106 9 -135 8 -20 20 -55 26 -78
14 -56 49 -83 110 -83 58 0 120 40 140 91 8 19 24 48 36 64 12 17 27 48 34 70
61 196 212 410 328 467 68 32 92 64 92 120 0 51 -18 130 -44 190 -9 21 -16 49
-16 63 0 14 -8 40 -17 58 -13 24 -17 57 -18 127 0 89 2 99 35 160 18 36 43 82
53 103 36 70 199 191 372 277 178 87 211 112 247 180 16 30 44 73 62 95 18 23
48 67 66 99 31 54 33 66 38 175 4 112 4 118 -19 146 -14 17 -41 56 -62 87 -20
31 -60 75 -89 96 -29 21 -60 47 -68 57 -8 10 -35 26 -60 37 -25 11 -73 37
-107 59 l-62 41 34 29 c29 26 115 148 115 164 0 3 30 67 68 143 l67 137 3 145
3 145 -34 81 c-20 45 -47 100 -61 123 -14 22 -26 45 -26 51 0 17 -147 120
-203 142 -29 12 -64 33 -80 47 -15 14 -54 41 -87 60 -115 69 -321 214 -312
220 5 3 22 26 38 51 16 25 45 66 65 90 86 106 113 212 113 455 l1 170 -36 75
c-44 92 -140 198 -247 275 -97 69 -122 90 -122 104 0 22 -77 95 -120 114 -25
11 -54 28 -65 38 -32 28 -245 135 -308 153 -72 21 -107 60 -107 120 l0 43 73
22 c43 12 125 25 198 31 68 5 171 16 229 25 71 12 211 19 435 24 182 4 344 8
360 9 17 1 111 -5 210 -13z m-2051 -266 c-21 -24 -26 -24 46 -3 10 3 38 0 61
-6 30 -8 44 -8 49 -1 7 12 49 1 100 -26 14 -7 36 -13 49 -13 14 0 36 -10 50
-23 29 -26 219 -107 252 -107 11 0 17 -4 14 -10 -3 -5 3 -10 15 -10 12 0 35
-8 53 -17 18 -9 37 -18 43 -19 6 -1 35 -17 65 -37 120 -76 233 -137 257 -137
20 0 258 -186 286 -223 13 -18 39 -61 57 -97 30 -57 34 -74 34 -142 -1 -74 -2
-79 -33 -110 -28 -30 -131 -81 -118 -59 3 5 -29 12 -72 15 -85 7 -217 33 -244
47 -12 6 -18 5 -18 -3 0 -25 -52 39 -91 111 -49 91 -64 110 -106 127 -105 45
-286 195 -269 223 7 10 -92 86 -100 78 -8 -8 -122 42 -159 69 -36 27 -100 54
-127 54 -24 0 -167 61 -165 71 1 4 -23 20 -54 36 -50 25 -58 27 -67 13 -9 -13
-14 -11 -39 13 -18 17 -24 30 -17 35 6 4 25 28 42 53 43 64 87 99 125 100 18
0 41 4 52 9 38 16 50 12 29 -11z m3101 -574 c1325 -478 2332 -1476 2816 -2792
123 -335 211 -716 256 -1115 24 -214 24 -722 0 -936 -67 -594 -213 -1092 -470
-1610 -462 -931 -1245 -1690 -2195 -2131 l-127 -59 -8 47 c-15 90 -39 187 -62
251 -12 36 -36 103 -53 150 -17 47 -34 108 -38 135 -4 28 -11 61 -17 75 -5 14
-11 53 -13 87 l-3 61 82 26 c45 14 88 26 94 26 32 0 174 57 231 93 107 67 179
196 189 338 6 78 3 90 -48 194 -10 22 -19 54 -19 72 0 17 -4 53 -10 80 -5 26
-14 89 -21 138 -14 107 -25 131 -128 278 -105 149 -146 238 -154 342 -4 44
-18 123 -32 174 -14 52 -25 111 -25 130 0 42 -22 152 -44 219 -8 26 -20 87
-26 135 -6 49 -22 125 -36 169 -14 44 -30 117 -36 162 -17 127 -21 342 -7 400
12 52 20 119 38 311 6 61 14 117 17 125 18 47 -8 549 -41 755 -8 55 -22 154
-31 220 -8 66 -27 170 -41 230 -14 61 -29 133 -33 160 -8 57 -23 123 -51 241
-11 44 -28 127 -38 185 l-19 104 23 25 c28 31 40 56 49 99 3 19 26 57 50 85
67 79 133 194 151 266 23 87 49 136 104 191 72 71 191 221 238 299 11 19 35
77 52 129 26 74 34 116 38 200 l5 106 -45 96 c-48 103 -72 128 -171 181 -84
45 -336 168 -345 168 -5 0 -25 13 -45 29 -20 16 -67 41 -104 56 -113 43 -104
8 -96 355 l7 302 31 -5 c17 -3 90 -26 161 -52z m-3401 -266 c14 -17 26 -37 26
-44 0 -8 10 -35 22 -60 l22 -45 -111 -108 c-61 -59 -118 -123 -128 -142 -23
-45 -65 -178 -65 -208 0 -12 -29 -62 -65 -110 -103 -138 -108 -152 -116 -332
-4 -85 -8 -175 -8 -200 l-1 -45 -80 -44 c-100 -56 -207 -161 -251 -247 -34
-68 -48 -150 -49 -289 0 -97 -27 -197 -68 -258 -106 -153 -144 -271 -144 -443
0 -94 4 -121 26 -185 35 -97 101 -232 122 -250 9 -8 28 -32 42 -54 28 -45 100
-136 180 -225 28 -33 52 -64 52 -70 0 -5 31 -43 69 -82 37 -40 71 -83 75 -95
4 -12 22 -35 41 -52 18 -16 43 -48 55 -72 12 -23 44 -65 70 -93 26 -28 59 -70
73 -92 14 -23 52 -69 84 -102 32 -34 78 -83 102 -109 24 -26 56 -61 71 -78 16
-16 69 -55 120 -85 51 -30 109 -73 129 -96 l38 -40 -5 -80 c-3 -64 0 -90 17
-134 31 -82 41 -62 -111 -229 -51 -56 -87 -120 -133 -236 -21 -52 -47 -92
-101 -153 -65 -73 -86 -107 -183 -305 -177 -363 -205 -508 -134 -717 32 -98
64 -135 174 -206 l69 -45 0 -74 c0 -41 -5 -105 -11 -142 -11 -63 -10 -74 15
-158 26 -84 32 -94 92 -153 l64 -63 -11 -45 c-18 -72 -7 -190 24 -251 15 -29
36 -57 47 -63 11 -6 33 -37 49 -68 56 -111 249 -262 334 -262 30 0 41 -6 64
-37 15 -20 49 -59 75 -86 l46 -50 -24 -39 c-76 -120 -223 -276 -382 -406 -116
-94 -101 -92 -243 -32 -1379 578 -2410 1804 -2733 3253 -82 367 -110 626 -110
1027 0 337 11 484 59 765 248 1468 1169 2716 2493 3380 l166 84 17 -44 c9 -25
29 -59 43 -76z m547 -153 c52 -23 128 -66 169 -93 109 -73 189 -123 198 -123
4 0 23 -13 43 -29 19 -16 53 -39 76 -50 22 -12 51 -33 64 -47 13 -14 45 -36
70 -49 25 -13 64 -38 86 -57 61 -49 249 -168 267 -168 8 0 43 -23 78 -51 35
-28 72 -55 83 -59 21 -8 179 -113 255 -169 25 -18 75 -48 111 -65 96 -47 154
-91 173 -128 9 -18 21 -40 26 -48 5 -8 22 -46 39 -84 28 -62 31 -78 31 -172 0
-102 0 -104 -27 -121 -16 -9 -38 -26 -51 -37 -15 -13 -21 -15 -17 -6 4 12 -6
15 -52 16 -156 1 -235 12 -272 38 -20 13 -55 29 -77 35 -23 6 -48 18 -55 27
-12 15 -14 14 -19 -6 -5 -20 -16 -12 -110 80 -97 96 -246 210 -273 210 -20 0
-64 34 -60 46 2 7 -20 26 -49 44 -31 19 -54 28 -56 21 -6 -17 -88 45 -128 97
-19 26 -48 53 -62 61 -15 8 -40 25 -56 38 -35 29 -169 97 -211 107 -57 13
-251 110 -350 175 -143 93 -198 154 -231 255 -14 45 -29 87 -33 94 -5 8 14 34
50 70 48 48 61 68 75 119 16 60 18 62 53 66 118 12 146 8 242 -37z m2639 -336
c0 -18 34 -39 148 -95 45 -23 80 -35 78 -28 -7 17 3 17 23 0 9 -7 50 -28 91
-46 41 -19 112 -53 158 -78 80 -43 83 -46 113 -111 28 -61 30 -73 24 -137 -11
-116 -64 -249 -115 -285 -16 -12 -30 -28 -30 -36 0 -8 -12 -27 -26 -41 -14
-14 -39 -44 -54 -65 -16 -22 -50 -58 -75 -80 -31 -28 -56 -63 -80 -115 -19
-42 -35 -83 -35 -92 0 -32 -32 -107 -68 -161 l-37 -55 -7 55 c-4 30 -12 95
-18 143 -16 144 -76 228 -262 368 -112 85 -200 181 -238 260 -25 54 -30 76
-30 143 0 99 24 200 58 246 37 50 45 59 60 73 7 7 22 20 33 30 14 13 17 22 11
30 -14 16 21 58 87 106 l54 38 68 -26 c43 -16 69 -32 69 -41z m-2540 -847 c25
-9 54 -24 65 -34 11 -9 36 -24 55 -32 19 -8 69 -44 111 -79 42 -34 108 -88
148 -118 40 -30 87 -68 104 -83 18 -15 46 -35 62 -44 17 -9 44 -27 61 -39 17
-13 36 -24 43 -24 13 0 127 -74 246 -161 45 -32 85 -59 88 -59 4 0 40 -20 81
-44 41 -24 84 -47 96 -51 32 -10 150 -86 150 -96 0 -5 27 -22 60 -39 33 -17
84 -45 113 -64 28 -18 78 -47 109 -64 70 -37 159 -113 195 -167 14 -22 35 -53
46 -69 42 -61 1 -219 -75 -294 -25 -23 -47 -34 -81 -38 -32 -5 -47 -3 -47 5 0
6 -11 11 -24 11 -37 0 -88 20 -126 50 -19 15 -55 36 -80 47 -25 11 -70 41
-101 67 -31 25 -60 46 -65 46 -22 0 -93 46 -136 88 -26 25 -74 61 -107 81
-152 91 -215 134 -242 164 -22 24 -32 29 -38 19 -8 -13 -65 21 -176 103 -16
12 -70 44 -120 71 -49 26 -111 62 -137 80 -27 18 -65 38 -85 44 -21 7 -57 23
-80 36 -23 13 -46 24 -52 24 -16 0 -113 65 -137 91 -12 13 -29 40 -38 59 -9
20 -31 53 -48 75 -18 21 -33 44 -33 49 0 24 -48 125 -57 123 -6 -1 -24 17 -41
40 l-29 41 17 55 c38 121 173 179 305 130z m-340 -1031 c0 -8 118 -37 135 -33
24 6 114 -29 263 -103 201 -100 217 -109 217 -120 0 -4 42 -25 93 -46 51 -21
104 -46 118 -55 13 -9 29 -13 33 -10 5 3 22 -5 38 -18 15 -13 53 -39 83 -57
30 -19 89 -65 131 -101 56 -48 98 -74 157 -98 47 -19 97 -48 121 -70 37 -34
41 -43 41 -86 0 -50 -7 -60 -64 -91 -24 -13 -28 -13 -23 -2 4 11 -7 15 -51 16
-32 1 -84 8 -117 16 -34 8 -62 11 -65 5 -3 -5 -27 6 -52 24 -25 17 -65 46 -89
63 -24 16 -62 36 -85 42 -48 14 -110 54 -107 70 7 31 -262 185 -279 159 -4 -7
-34 0 -91 21 -47 18 -111 37 -143 43 -160 29 -304 95 -304 139 0 22 -76 86
-96 82 -34 -7 -30 124 5 182 22 34 25 36 77 36 30 0 54 -4 54 -8z m2823 -5051
c21 -5 61 -27 90 -50 42 -32 55 -50 70 -94 9 -29 17 -74 17 -99 0 -25 7 -65
15 -88 8 -24 18 -68 21 -99 3 -31 16 -83 29 -116 85 -217 99 -263 119 -395 10
-59 10 -87 3 -92 -28 -17 -341 -115 -492 -153 -395 -100 -811 -150 -1185 -143
l-165 3 -3 50 c-3 53 -4 51 105 211 12 17 45 51 72 74 28 24 53 52 57 63 4 11
38 55 76 96 38 42 90 100 116 129 26 29 65 72 88 95 22 23 73 82 113 130 82
97 156 167 178 167 15 0 59 35 196 159 45 40 93 78 107 84 14 5 50 21 80 35
74 33 221 49 293 33z"/>
</g>
</svg>
